<svg width="35" height="36" viewBox="0 0 35 36" fill="none" xmlns="http://www.w3.org/2000/svg">
<path d="M25.1922 21.4612L25.1794 21.5738C22.0151 19.9298 21.684 19.7107 21.2755 20.3497C20.9919 20.7923 20.1659 21.7957 19.917 22.0927C19.6652 22.3853 19.4148 22.4077 18.9874 22.2053C18.5557 21.9803 17.1701 21.5077 15.5296 19.9777C14.2518 18.7852 13.3942 17.3228 13.1409 16.8728C12.7193 16.1137 13.6013 16.0057 14.4043 14.4217C14.5482 14.1068 14.4748 13.8592 14.3684 13.6357C14.2604 13.4108 13.4014 11.2057 13.0416 10.3267C12.6962 9.45075 12.3408 9.56174 12.0746 9.56174C11.2458 9.48675 10.64 9.49874 10.1061 10.0777C7.78359 12.7387 8.36925 15.4837 10.3565 18.4028C14.2619 23.7308 16.3427 24.7118 20.1472 26.0737C21.1746 26.4142 22.1115 26.3663 22.8526 26.2552C23.6785 26.1187 25.3952 25.1737 25.7535 24.1163C26.1205 23.0588 26.1205 22.1812 26.0125 21.9788C25.9061 21.7762 25.6239 21.6638 25.1922 21.4612Z" fill="white"/>
<path d="M29.5277 5.17416C18.4635 -5.97536 0.152531 2.11115 0.145337 17.8401C0.145337 20.9841 0.935333 24.0501 2.4405 26.7577L0 36.0007L9.1159 33.5227C20.491 39.9277 34.5296 31.4226 34.5353 17.8491C34.5353 13.0852 32.751 8.60166 29.5061 5.23266L29.5277 5.17416ZM31.6603 17.7997C31.6517 29.2492 19.5945 36.3997 10.0584 30.5557L9.5404 30.2346L4.14424 31.6972L5.59041 26.2297L5.2465 25.6672C-0.68783 15.8197 6.13003 2.94964 17.3713 2.94964C21.1904 2.94964 24.7748 4.50215 27.4743 7.31466C30.1724 10.1032 31.6603 13.8397 31.6603 17.7997Z" fill="white"/>
</svg>
